<mxfile host="app.diagrams.net" modified="2024-03-20T09:49:06.159Z" agent="Mozilla/5.0 (Windows NT 10.0; Win64; x64) AppleWebKit/537.36 (KHTML, like Gecko) Chrome/122.0.0.0 Safari/537.36" etag="EJWYf_JEQujqhtfBMCWW" version="24.0.7" type="device">
  <diagram name="Page-1" id="b5b7bab2-c9e2-2cf4-8b2a-24fd1a2a6d21">
    <mxGraphModel dx="2227" dy="696" grid="1" gridSize="10" guides="1" tooltips="1" connect="1" arrows="1" fold="1" page="1" pageScale="1" pageWidth="827" pageHeight="1169" background="none" math="0" shadow="0">
      <root>
        <mxCell id="0" />
        <mxCell id="1" parent="0" />
        <mxCell id="a7nO67XUlajImu4DzMsQ-3" style="edgeStyle=orthogonalEdgeStyle;rounded=0;orthogonalLoop=1;jettySize=auto;html=1;exitX=0;exitY=1;exitDx=0;exitDy=0;exitPerimeter=0;" edge="1" parent="1" source="4FVMw5Oiit9OQuc1B4m7-1" target="4FVMw5Oiit9OQuc1B4m7-6">
          <mxGeometry relative="1" as="geometry" />
        </mxCell>
        <mxCell id="4FVMw5Oiit9OQuc1B4m7-1" value="User&lt;br&gt;" style="shape=umlActor;verticalLabelPosition=bottom;verticalAlign=top;html=1;outlineConnect=0;" parent="1" vertex="1">
          <mxGeometry x="330" y="30" width="30" height="60" as="geometry" />
        </mxCell>
        <mxCell id="4FVMw5Oiit9OQuc1B4m7-6" value="Home Page" style="html=1;whiteSpace=wrap;" parent="1" vertex="1">
          <mxGeometry x="290" y="180" width="110" height="50" as="geometry" />
        </mxCell>
        <mxCell id="a7nO67XUlajImu4DzMsQ-4" style="edgeStyle=orthogonalEdgeStyle;rounded=0;orthogonalLoop=1;jettySize=auto;html=1;entryX=0;entryY=0.5;entryDx=0;entryDy=0;" edge="1" parent="1" source="4FVMw5Oiit9OQuc1B4m7-7" target="4FVMw5Oiit9OQuc1B4m7-11">
          <mxGeometry relative="1" as="geometry" />
        </mxCell>
        <mxCell id="4FVMw5Oiit9OQuc1B4m7-7" value="Is the user logged?" style="html=1;whiteSpace=wrap;aspect=fixed;shape=isoRectangle;" parent="1" vertex="1">
          <mxGeometry x="510" y="160" width="150" height="90" as="geometry" />
        </mxCell>
        <mxCell id="4FVMw5Oiit9OQuc1B4m7-8" value="" style="endArrow=classic;html=1;rounded=0;entryX=0.018;entryY=0.502;entryDx=0;entryDy=0;entryPerimeter=0;exitX=1;exitY=0.5;exitDx=0;exitDy=0;" parent="1" target="4FVMw5Oiit9OQuc1B4m7-7" edge="1" source="4FVMw5Oiit9OQuc1B4m7-6">
          <mxGeometry width="50" height="50" relative="1" as="geometry">
            <mxPoint x="330" y="384.71" as="sourcePoint" />
            <mxPoint x="410" y="384.71" as="targetPoint" />
          </mxGeometry>
        </mxCell>
        <mxCell id="4FVMw5Oiit9OQuc1B4m7-10" value="No&lt;br&gt;" style="text;html=1;align=center;verticalAlign=middle;resizable=0;points=[];autosize=1;strokeColor=none;fillColor=none;" parent="1" vertex="1">
          <mxGeometry x="680" y="180" width="40" height="30" as="geometry" />
        </mxCell>
        <mxCell id="4FVMw5Oiit9OQuc1B4m7-11" value="Login/Register&lt;br&gt;Page" style="html=1;whiteSpace=wrap;" parent="1" vertex="1">
          <mxGeometry x="755" y="180" width="110" height="50" as="geometry" />
        </mxCell>
        <mxCell id="4FVMw5Oiit9OQuc1B4m7-13" value="Yes" style="text;html=1;align=center;verticalAlign=middle;resizable=0;points=[];autosize=1;strokeColor=none;fillColor=none;" parent="1" vertex="1">
          <mxGeometry x="550" y="270" width="40" height="30" as="geometry" />
        </mxCell>
        <mxCell id="a7nO67XUlajImu4DzMsQ-8" style="edgeStyle=orthogonalEdgeStyle;rounded=0;orthogonalLoop=1;jettySize=auto;html=1;exitX=0;exitY=1;exitDx=0;exitDy=0;exitPerimeter=0;entryX=0.5;entryY=0;entryDx=0;entryDy=0;" edge="1" parent="1" source="4FVMw5Oiit9OQuc1B4m7-16" target="4FVMw5Oiit9OQuc1B4m7-25">
          <mxGeometry relative="1" as="geometry" />
        </mxCell>
        <mxCell id="4FVMw5Oiit9OQuc1B4m7-16" value="Runner&lt;br&gt;" style="shape=umlActor;verticalLabelPosition=bottom;verticalAlign=top;html=1;outlineConnect=0;" parent="1" vertex="1">
          <mxGeometry x="570" y="340" width="30" height="60" as="geometry" />
        </mxCell>
        <mxCell id="a7nO67XUlajImu4DzMsQ-25" style="edgeStyle=orthogonalEdgeStyle;rounded=0;orthogonalLoop=1;jettySize=auto;html=1;exitX=0.5;exitY=0;exitDx=0;exitDy=0;entryX=0.5;entryY=1;entryDx=0;entryDy=0;" edge="1" parent="1" source="4FVMw5Oiit9OQuc1B4m7-20" target="4FVMw5Oiit9OQuc1B4m7-55">
          <mxGeometry relative="1" as="geometry" />
        </mxCell>
        <mxCell id="4FVMw5Oiit9OQuc1B4m7-20" value="Runner account" style="swimlane;fontStyle=0;childLayout=stackLayout;horizontal=1;startSize=20;fillColor=none;horizontalStack=0;resizeParent=1;resizeParentMax=0;resizeLast=0;collapsible=1;marginBottom=0;whiteSpace=wrap;html=1;" parent="1" vertex="1">
          <mxGeometry x="40" y="517" width="160" height="126" as="geometry">
            <mxRectangle y="270" width="130" height="30" as="alternateBounds" />
          </mxGeometry>
        </mxCell>
        <mxCell id="4FVMw5Oiit9OQuc1B4m7-21" value="+ see_details()" style="text;strokeColor=none;fillColor=none;align=left;verticalAlign=top;spacingLeft=4;spacingRight=4;overflow=hidden;rotatable=0;points=[[0,0.5],[1,0.5]];portConstraint=eastwest;whiteSpace=wrap;html=1;" parent="4FVMw5Oiit9OQuc1B4m7-20" vertex="1">
          <mxGeometry y="20" width="160" height="26" as="geometry" />
        </mxCell>
        <mxCell id="4FVMw5Oiit9OQuc1B4m7-22" value="+see_previous_runs()" style="text;strokeColor=none;fillColor=none;align=left;verticalAlign=top;spacingLeft=4;spacingRight=4;overflow=hidden;rotatable=0;points=[[0,0.5],[1,0.5]];portConstraint=eastwest;whiteSpace=wrap;html=1;" parent="4FVMw5Oiit9OQuc1B4m7-20" vertex="1">
          <mxGeometry y="46" width="160" height="26" as="geometry" />
        </mxCell>
        <mxCell id="4FVMw5Oiit9OQuc1B4m7-23" value="+ delete_account()" style="text;strokeColor=none;fillColor=none;align=left;verticalAlign=top;spacingLeft=4;spacingRight=4;overflow=hidden;rotatable=0;points=[[0,0.5],[1,0.5]];portConstraint=eastwest;whiteSpace=wrap;html=1;" parent="4FVMw5Oiit9OQuc1B4m7-20" vertex="1">
          <mxGeometry y="72" width="160" height="28" as="geometry" />
        </mxCell>
        <mxCell id="4FVMw5Oiit9OQuc1B4m7-31" value="+ change_account_details()" style="text;strokeColor=none;fillColor=none;align=left;verticalAlign=top;spacingLeft=4;spacingRight=4;overflow=hidden;rotatable=0;points=[[0,0.5],[1,0.5]];portConstraint=eastwest;whiteSpace=wrap;html=1;" parent="4FVMw5Oiit9OQuc1B4m7-20" vertex="1">
          <mxGeometry y="100" width="160" height="26" as="geometry" />
        </mxCell>
        <mxCell id="a7nO67XUlajImu4DzMsQ-22" style="edgeStyle=orthogonalEdgeStyle;rounded=0;orthogonalLoop=1;jettySize=auto;html=1;entryX=0.5;entryY=0;entryDx=0;entryDy=0;" edge="1" parent="1" source="4FVMw5Oiit9OQuc1B4m7-25" target="4FVMw5Oiit9OQuc1B4m7-32">
          <mxGeometry relative="1" as="geometry" />
        </mxCell>
        <mxCell id="4FVMw5Oiit9OQuc1B4m7-25" value="Main Interface" style="swimlane;fontStyle=0;childLayout=stackLayout;horizontal=1;startSize=26;fillColor=none;horizontalStack=0;resizeParent=1;resizeParentMax=0;resizeLast=0;collapsible=1;marginBottom=0;whiteSpace=wrap;html=1;" parent="1" vertex="1">
          <mxGeometry x="515" y="515" width="140" height="130" as="geometry">
            <mxRectangle x="240" y="230" width="120" height="30" as="alternateBounds" />
          </mxGeometry>
        </mxCell>
        <mxCell id="4FVMw5Oiit9OQuc1B4m7-26" value="+see_account()" style="text;strokeColor=none;fillColor=none;align=left;verticalAlign=top;spacingLeft=4;spacingRight=4;overflow=hidden;rotatable=0;points=[[0,0.5],[1,0.5]];portConstraint=eastwest;whiteSpace=wrap;html=1;" parent="4FVMw5Oiit9OQuc1B4m7-25" vertex="1">
          <mxGeometry y="26" width="140" height="26" as="geometry" />
        </mxCell>
        <mxCell id="a7nO67XUlajImu4DzMsQ-24" style="edgeStyle=orthogonalEdgeStyle;rounded=0;orthogonalLoop=1;jettySize=auto;html=1;exitX=0;exitY=0.5;exitDx=0;exitDy=0;" edge="1" parent="4FVMw5Oiit9OQuc1B4m7-25" source="4FVMw5Oiit9OQuc1B4m7-27">
          <mxGeometry relative="1" as="geometry">
            <mxPoint x="-315" y="65" as="targetPoint" />
          </mxGeometry>
        </mxCell>
        <mxCell id="4FVMw5Oiit9OQuc1B4m7-27" value="+start_run()" style="text;strokeColor=none;fillColor=none;align=left;verticalAlign=top;spacingLeft=4;spacingRight=4;overflow=hidden;rotatable=0;points=[[0,0.5],[1,0.5]];portConstraint=eastwest;whiteSpace=wrap;html=1;" parent="4FVMw5Oiit9OQuc1B4m7-25" vertex="1">
          <mxGeometry y="52" width="140" height="26" as="geometry" />
        </mxCell>
        <mxCell id="a7nO67XUlajImu4DzMsQ-23" style="edgeStyle=orthogonalEdgeStyle;rounded=0;orthogonalLoop=1;jettySize=auto;html=1;" edge="1" parent="4FVMw5Oiit9OQuc1B4m7-25" source="4FVMw5Oiit9OQuc1B4m7-28">
          <mxGeometry relative="1" as="geometry">
            <mxPoint x="315" y="185" as="targetPoint" />
          </mxGeometry>
        </mxCell>
        <mxCell id="4FVMw5Oiit9OQuc1B4m7-28" value="+choose_circuit()" style="text;strokeColor=none;fillColor=none;align=left;verticalAlign=top;spacingLeft=4;spacingRight=4;overflow=hidden;rotatable=0;points=[[0,0.5],[1,0.5]];portConstraint=eastwest;whiteSpace=wrap;html=1;" parent="4FVMw5Oiit9OQuc1B4m7-25" vertex="1">
          <mxGeometry y="78" width="140" height="26" as="geometry" />
        </mxCell>
        <mxCell id="4FVMw5Oiit9OQuc1B4m7-87" value="+join_community" style="text;strokeColor=none;fillColor=none;align=left;verticalAlign=top;spacingLeft=4;spacingRight=4;overflow=hidden;rotatable=0;points=[[0,0.5],[1,0.5]];portConstraint=eastwest;whiteSpace=wrap;html=1;" parent="4FVMw5Oiit9OQuc1B4m7-25" vertex="1">
          <mxGeometry y="104" width="140" height="26" as="geometry" />
        </mxCell>
        <mxCell id="4FVMw5Oiit9OQuc1B4m7-32" value="Run" style="swimlane;fontStyle=0;childLayout=stackLayout;horizontal=1;startSize=26;fillColor=none;horizontalStack=0;resizeParent=1;resizeParentMax=0;resizeLast=0;collapsible=1;marginBottom=0;whiteSpace=wrap;html=1;" parent="1" vertex="1">
          <mxGeometry x="540" y="840" width="140" height="156" as="geometry" />
        </mxCell>
        <mxCell id="4FVMw5Oiit9OQuc1B4m7-37" value="+pause()" style="text;strokeColor=none;fillColor=none;align=left;verticalAlign=top;spacingLeft=4;spacingRight=4;overflow=hidden;rotatable=0;points=[[0,0.5],[1,0.5]];portConstraint=eastwest;whiteSpace=wrap;html=1;" parent="4FVMw5Oiit9OQuc1B4m7-32" vertex="1">
          <mxGeometry y="26" width="140" height="26" as="geometry" />
        </mxCell>
        <mxCell id="4FVMw5Oiit9OQuc1B4m7-35" value="-time_tracker" style="text;strokeColor=none;fillColor=none;align=left;verticalAlign=top;spacingLeft=4;spacingRight=4;overflow=hidden;rotatable=0;points=[[0,0.5],[1,0.5]];portConstraint=eastwest;whiteSpace=wrap;html=1;" parent="4FVMw5Oiit9OQuc1B4m7-32" vertex="1">
          <mxGeometry y="52" width="140" height="26" as="geometry" />
        </mxCell>
        <mxCell id="4FVMw5Oiit9OQuc1B4m7-34" value="-pace_tracker" style="text;strokeColor=none;fillColor=none;align=left;verticalAlign=top;spacingLeft=4;spacingRight=4;overflow=hidden;rotatable=0;points=[[0,0.5],[1,0.5]];portConstraint=eastwest;whiteSpace=wrap;html=1;" parent="4FVMw5Oiit9OQuc1B4m7-32" vertex="1">
          <mxGeometry y="78" width="140" height="26" as="geometry" />
        </mxCell>
        <mxCell id="4FVMw5Oiit9OQuc1B4m7-33" value="-distance_tracker" style="text;strokeColor=none;fillColor=none;align=left;verticalAlign=top;spacingLeft=4;spacingRight=4;overflow=hidden;rotatable=0;points=[[0,0.5],[1,0.5]];portConstraint=eastwest;whiteSpace=wrap;html=1;" parent="4FVMw5Oiit9OQuc1B4m7-32" vertex="1">
          <mxGeometry y="104" width="140" height="26" as="geometry" />
        </mxCell>
        <mxCell id="4FVMw5Oiit9OQuc1B4m7-68" value="+end_run()" style="text;strokeColor=none;fillColor=none;align=left;verticalAlign=top;spacingLeft=4;spacingRight=4;overflow=hidden;rotatable=0;points=[[0,0.5],[1,0.5]];portConstraint=eastwest;whiteSpace=wrap;html=1;" parent="4FVMw5Oiit9OQuc1B4m7-32" vertex="1">
          <mxGeometry y="130" width="140" height="26" as="geometry" />
        </mxCell>
        <mxCell id="4FVMw5Oiit9OQuc1B4m7-40" value="Circuit&amp;lt;interface&amp;gt;" style="swimlane;fontStyle=1;align=center;verticalAlign=top;childLayout=stackLayout;horizontal=1;startSize=26;horizontalStack=0;resizeParent=1;resizeParentMax=0;resizeLast=0;collapsible=1;marginBottom=0;whiteSpace=wrap;html=1;" parent="1" vertex="1">
          <mxGeometry x="790" y="703" width="160" height="234" as="geometry">
            <mxRectangle x="780" y="390" width="140" height="30" as="alternateBounds" />
          </mxGeometry>
        </mxCell>
        <mxCell id="4FVMw5Oiit9OQuc1B4m7-41" value="-isWellLit" style="text;strokeColor=none;fillColor=none;align=left;verticalAlign=top;spacingLeft=4;spacingRight=4;overflow=hidden;rotatable=0;points=[[0,0.5],[1,0.5]];portConstraint=eastwest;whiteSpace=wrap;html=1;" parent="4FVMw5Oiit9OQuc1B4m7-40" vertex="1">
          <mxGeometry y="26" width="160" height="26" as="geometry" />
        </mxCell>
        <mxCell id="4FVMw5Oiit9OQuc1B4m7-43" value="-isPetFriendly" style="text;strokeColor=none;fillColor=none;align=left;verticalAlign=top;spacingLeft=4;spacingRight=4;overflow=hidden;rotatable=0;points=[[0,0.5],[1,0.5]];portConstraint=eastwest;whiteSpace=wrap;html=1;" parent="4FVMw5Oiit9OQuc1B4m7-40" vertex="1">
          <mxGeometry y="52" width="160" height="26" as="geometry" />
        </mxCell>
        <mxCell id="4FVMw5Oiit9OQuc1B4m7-47" value="-typeOfTerrain" style="text;strokeColor=none;fillColor=none;align=left;verticalAlign=top;spacingLeft=4;spacingRight=4;overflow=hidden;rotatable=0;points=[[0,0.5],[1,0.5]];portConstraint=eastwest;whiteSpace=wrap;html=1;" parent="4FVMw5Oiit9OQuc1B4m7-40" vertex="1">
          <mxGeometry y="78" width="160" height="26" as="geometry" />
        </mxCell>
        <mxCell id="4FVMw5Oiit9OQuc1B4m7-48" value="-elevation" style="text;strokeColor=none;fillColor=none;align=left;verticalAlign=top;spacingLeft=4;spacingRight=4;overflow=hidden;rotatable=0;points=[[0,0.5],[1,0.5]];portConstraint=eastwest;whiteSpace=wrap;html=1;" parent="4FVMw5Oiit9OQuc1B4m7-40" vertex="1">
          <mxGeometry y="104" width="160" height="26" as="geometry" />
        </mxCell>
        <mxCell id="4FVMw5Oiit9OQuc1B4m7-49" value="-difficulty" style="text;strokeColor=none;fillColor=none;align=left;verticalAlign=top;spacingLeft=4;spacingRight=4;overflow=hidden;rotatable=0;points=[[0,0.5],[1,0.5]];portConstraint=eastwest;whiteSpace=wrap;html=1;" parent="4FVMw5Oiit9OQuc1B4m7-40" vertex="1">
          <mxGeometry y="130" width="160" height="26" as="geometry" />
        </mxCell>
        <mxCell id="4FVMw5Oiit9OQuc1B4m7-50" value="-rating" style="text;strokeColor=none;fillColor=none;align=left;verticalAlign=top;spacingLeft=4;spacingRight=4;overflow=hidden;rotatable=0;points=[[0,0.5],[1,0.5]];portConstraint=eastwest;whiteSpace=wrap;html=1;" parent="4FVMw5Oiit9OQuc1B4m7-40" vertex="1">
          <mxGeometry y="156" width="160" height="26" as="geometry" />
        </mxCell>
        <mxCell id="4FVMw5Oiit9OQuc1B4m7-71" value="-distance" style="text;strokeColor=none;fillColor=none;align=left;verticalAlign=top;spacingLeft=4;spacingRight=4;overflow=hidden;rotatable=0;points=[[0,0.5],[1,0.5]];portConstraint=eastwest;whiteSpace=wrap;html=1;" parent="4FVMw5Oiit9OQuc1B4m7-40" vertex="1">
          <mxGeometry y="182" width="160" height="26" as="geometry" />
        </mxCell>
        <mxCell id="4FVMw5Oiit9OQuc1B4m7-97" value="-poluted" style="text;strokeColor=none;fillColor=none;align=left;verticalAlign=top;spacingLeft=4;spacingRight=4;overflow=hidden;rotatable=0;points=[[0,0.5],[1,0.5]];portConstraint=eastwest;whiteSpace=wrap;html=1;" parent="4FVMw5Oiit9OQuc1B4m7-40" vertex="1">
          <mxGeometry y="208" width="160" height="26" as="geometry" />
        </mxCell>
        <mxCell id="4FVMw5Oiit9OQuc1B4m7-51" value="starts" style="text;html=1;align=center;verticalAlign=middle;resizable=0;points=[];autosize=1;strokeColor=none;fillColor=none;" parent="1" vertex="1">
          <mxGeometry x="605" y="750" width="50" height="30" as="geometry" />
        </mxCell>
        <mxCell id="4FVMw5Oiit9OQuc1B4m7-52" value="selects" style="text;html=1;align=center;verticalAlign=middle;resizable=0;points=[];autosize=1;strokeColor=none;fillColor=none;" parent="1" vertex="1">
          <mxGeometry x="720" y="610" width="60" height="30" as="geometry" />
        </mxCell>
        <mxCell id="4FVMw5Oiit9OQuc1B4m7-54" value="starts" style="text;html=1;align=center;verticalAlign=middle;resizable=0;points=[];autosize=1;strokeColor=none;fillColor=none;" parent="1" vertex="1">
          <mxGeometry x="720" y="881" width="50" height="30" as="geometry" />
        </mxCell>
        <mxCell id="a7nO67XUlajImu4DzMsQ-28" style="edgeStyle=orthogonalEdgeStyle;rounded=0;orthogonalLoop=1;jettySize=auto;html=1;exitX=1;exitY=0.5;exitDx=0;exitDy=0;entryX=1;entryY=0.5;entryDx=0;entryDy=0;" edge="1" parent="1" source="4FVMw5Oiit9OQuc1B4m7-55" target="4FVMw5Oiit9OQuc1B4m7-21">
          <mxGeometry relative="1" as="geometry" />
        </mxCell>
        <mxCell id="4FVMw5Oiit9OQuc1B4m7-55" value="Do you want to delete the account?" style="rhombus;whiteSpace=wrap;html=1;" parent="1" vertex="1">
          <mxGeometry x="25" y="280" width="190" height="100" as="geometry" />
        </mxCell>
        <mxCell id="4FVMw5Oiit9OQuc1B4m7-56" value="" style="endArrow=classic;html=1;rounded=0;exitX=0.795;exitY=0.259;exitDx=0;exitDy=0;exitPerimeter=0;entryX=0.565;entryY=1.04;entryDx=0;entryDy=0;entryPerimeter=0;" parent="1" source="4FVMw5Oiit9OQuc1B4m7-55" target="4FVMw5Oiit9OQuc1B4m7-6" edge="1">
          <mxGeometry width="50" height="50" relative="1" as="geometry">
            <mxPoint x="270" y="490" as="sourcePoint" />
            <mxPoint x="320" y="440" as="targetPoint" />
          </mxGeometry>
        </mxCell>
        <mxCell id="4FVMw5Oiit9OQuc1B4m7-58" value="Yes" style="text;html=1;align=center;verticalAlign=middle;resizable=0;points=[];autosize=1;strokeColor=none;fillColor=none;" parent="1" vertex="1">
          <mxGeometry x="225" y="240" width="40" height="30" as="geometry" />
        </mxCell>
        <mxCell id="4FVMw5Oiit9OQuc1B4m7-59" value="No" style="text;html=1;align=center;verticalAlign=middle;resizable=0;points=[];autosize=1;strokeColor=none;fillColor=none;" parent="1" vertex="1">
          <mxGeometry x="240" y="430" width="40" height="30" as="geometry" />
        </mxCell>
        <mxCell id="a7nO67XUlajImu4DzMsQ-20" style="edgeStyle=orthogonalEdgeStyle;rounded=0;orthogonalLoop=1;jettySize=auto;html=1;" edge="1" parent="1" source="4FVMw5Oiit9OQuc1B4m7-63" target="4FVMw5Oiit9OQuc1B4m7-72">
          <mxGeometry relative="1" as="geometry" />
        </mxCell>
        <mxCell id="4FVMw5Oiit9OQuc1B4m7-63" value="Do you want to end the run?" style="html=1;whiteSpace=wrap;aspect=fixed;shape=isoRectangle;" parent="1" vertex="1">
          <mxGeometry x="225" y="867" width="170" height="102" as="geometry" />
        </mxCell>
        <mxCell id="4FVMw5Oiit9OQuc1B4m7-64" value="" style="endArrow=classic;html=1;rounded=0;exitX=-0.02;exitY=0.241;exitDx=0;exitDy=0;exitPerimeter=0;entryX=1;entryY=0.549;entryDx=0;entryDy=0;entryPerimeter=0;" parent="1" source="4FVMw5Oiit9OQuc1B4m7-34" target="4FVMw5Oiit9OQuc1B4m7-63" edge="1">
          <mxGeometry width="50" height="50" relative="1" as="geometry">
            <mxPoint x="400" y="805" as="sourcePoint" />
            <mxPoint x="450" y="755" as="targetPoint" />
          </mxGeometry>
        </mxCell>
        <mxCell id="4FVMw5Oiit9OQuc1B4m7-67" value="Yes" style="text;html=1;align=center;verticalAlign=middle;resizable=0;points=[];autosize=1;strokeColor=none;fillColor=none;" parent="1" vertex="1">
          <mxGeometry x="310" y="820" width="40" height="30" as="geometry" />
        </mxCell>
        <mxCell id="4FVMw5Oiit9OQuc1B4m7-72" value="Rate Run" style="rounded=0;whiteSpace=wrap;html=1;" parent="1" vertex="1">
          <mxGeometry x="250" y="725.5" width="120" height="60" as="geometry" />
        </mxCell>
        <mxCell id="4FVMw5Oiit9OQuc1B4m7-73" value="Previous Runs" style="swimlane;fontStyle=0;childLayout=stackLayout;horizontal=1;startSize=26;fillColor=none;horizontalStack=0;resizeParent=1;resizeParentMax=0;resizeLast=0;collapsible=1;marginBottom=0;whiteSpace=wrap;html=1;" parent="1" vertex="1">
          <mxGeometry x="-190" y="554" width="140" height="52" as="geometry" />
        </mxCell>
        <mxCell id="4FVMw5Oiit9OQuc1B4m7-74" value="+rate_runs()" style="text;strokeColor=none;fillColor=none;align=left;verticalAlign=top;spacingLeft=4;spacingRight=4;overflow=hidden;rotatable=0;points=[[0,0.5],[1,0.5]];portConstraint=eastwest;whiteSpace=wrap;html=1;" parent="4FVMw5Oiit9OQuc1B4m7-73" vertex="1">
          <mxGeometry y="26" width="140" height="26" as="geometry" />
        </mxCell>
        <mxCell id="4FVMw5Oiit9OQuc1B4m7-77" value="Do you want to create a circuit?" style="html=1;whiteSpace=wrap;aspect=fixed;shape=isoRectangle;" parent="1" vertex="1">
          <mxGeometry x="1079" y="725.5" width="181.67" height="109" as="geometry" />
        </mxCell>
        <mxCell id="a7nO67XUlajImu4DzMsQ-18" style="edgeStyle=orthogonalEdgeStyle;rounded=0;orthogonalLoop=1;jettySize=auto;html=1;" edge="1" parent="1" source="4FVMw5Oiit9OQuc1B4m7-80">
          <mxGeometry relative="1" as="geometry">
            <mxPoint x="870" y="940" as="targetPoint" />
          </mxGeometry>
        </mxCell>
        <mxCell id="4FVMw5Oiit9OQuc1B4m7-80" value="Circuit creater" style="swimlane;fontStyle=0;childLayout=stackLayout;horizontal=1;startSize=26;fillColor=none;horizontalStack=0;resizeParent=1;resizeParentMax=0;resizeLast=0;collapsible=1;marginBottom=0;whiteSpace=wrap;html=1;" parent="1" vertex="1">
          <mxGeometry x="1094" y="960" width="140" height="78" as="geometry" />
        </mxCell>
        <mxCell id="4FVMw5Oiit9OQuc1B4m7-81" value="-isPublic" style="text;strokeColor=none;fillColor=none;align=left;verticalAlign=top;spacingLeft=4;spacingRight=4;overflow=hidden;rotatable=0;points=[[0,0.5],[1,0.5]];portConstraint=eastwest;whiteSpace=wrap;html=1;" parent="4FVMw5Oiit9OQuc1B4m7-80" vertex="1">
          <mxGeometry y="26" width="140" height="26" as="geometry" />
        </mxCell>
        <mxCell id="4FVMw5Oiit9OQuc1B4m7-82" value="+create()" style="text;strokeColor=none;fillColor=none;align=left;verticalAlign=top;spacingLeft=4;spacingRight=4;overflow=hidden;rotatable=0;points=[[0,0.5],[1,0.5]];portConstraint=eastwest;whiteSpace=wrap;html=1;" parent="4FVMw5Oiit9OQuc1B4m7-80" vertex="1">
          <mxGeometry y="52" width="140" height="26" as="geometry" />
        </mxCell>
        <mxCell id="4FVMw5Oiit9OQuc1B4m7-86" value="Yes" style="text;html=1;align=center;verticalAlign=middle;resizable=0;points=[];autosize=1;strokeColor=none;fillColor=none;" parent="1" vertex="1">
          <mxGeometry x="1170" y="870" width="40" height="30" as="geometry" />
        </mxCell>
        <mxCell id="a7nO67XUlajImu4DzMsQ-13" style="edgeStyle=orthogonalEdgeStyle;rounded=0;orthogonalLoop=1;jettySize=auto;html=1;entryX=0.5;entryY=0;entryDx=0;entryDy=0;" edge="1" parent="1" source="4FVMw5Oiit9OQuc1B4m7-88" target="4FVMw5Oiit9OQuc1B4m7-40">
          <mxGeometry relative="1" as="geometry" />
        </mxCell>
        <mxCell id="4FVMw5Oiit9OQuc1B4m7-88" value="Community" style="swimlane;fontStyle=0;childLayout=stackLayout;horizontal=1;startSize=26;fillColor=none;horizontalStack=0;resizeParent=1;resizeParentMax=0;resizeLast=0;collapsible=1;marginBottom=0;whiteSpace=wrap;html=1;" parent="1" vertex="1">
          <mxGeometry x="800" y="515" width="140" height="78" as="geometry" />
        </mxCell>
        <mxCell id="4FVMw5Oiit9OQuc1B4m7-89" value="+see_leaderboard()" style="text;strokeColor=none;fillColor=none;align=left;verticalAlign=top;spacingLeft=4;spacingRight=4;overflow=hidden;rotatable=0;points=[[0,0.5],[1,0.5]];portConstraint=eastwest;whiteSpace=wrap;html=1;" parent="4FVMw5Oiit9OQuc1B4m7-88" vertex="1">
          <mxGeometry y="26" width="140" height="26" as="geometry" />
        </mxCell>
        <mxCell id="4FVMw5Oiit9OQuc1B4m7-90" value="+ save_circuit()" style="text;strokeColor=none;fillColor=none;align=left;verticalAlign=top;spacingLeft=4;spacingRight=4;overflow=hidden;rotatable=0;points=[[0,0.5],[1,0.5]];portConstraint=eastwest;whiteSpace=wrap;html=1;" parent="4FVMw5Oiit9OQuc1B4m7-88" vertex="1">
          <mxGeometry y="52" width="140" height="26" as="geometry" />
        </mxCell>
        <mxCell id="4FVMw5Oiit9OQuc1B4m7-93" value="Leaderboard" style="html=1;whiteSpace=wrap;" parent="1" vertex="1">
          <mxGeometry x="1109" y="529" width="110" height="50" as="geometry" />
        </mxCell>
        <mxCell id="a7nO67XUlajImu4DzMsQ-5" style="edgeStyle=orthogonalEdgeStyle;rounded=0;orthogonalLoop=1;jettySize=auto;html=1;entryX=0.5;entryY=0;entryDx=0;entryDy=0;entryPerimeter=0;" edge="1" parent="1" source="4FVMw5Oiit9OQuc1B4m7-7" target="4FVMw5Oiit9OQuc1B4m7-16">
          <mxGeometry relative="1" as="geometry" />
        </mxCell>
        <mxCell id="a7nO67XUlajImu4DzMsQ-7" style="edgeStyle=orthogonalEdgeStyle;rounded=0;orthogonalLoop=1;jettySize=auto;html=1;exitX=0.5;exitY=1;exitDx=0;exitDy=0;entryX=1;entryY=0.3333333333333333;entryDx=0;entryDy=0;entryPerimeter=0;" edge="1" parent="1" source="4FVMw5Oiit9OQuc1B4m7-11" target="4FVMw5Oiit9OQuc1B4m7-16">
          <mxGeometry relative="1" as="geometry" />
        </mxCell>
        <mxCell id="a7nO67XUlajImu4DzMsQ-9" style="edgeStyle=orthogonalEdgeStyle;rounded=0;orthogonalLoop=1;jettySize=auto;html=1;exitX=1;exitY=0.5;exitDx=0;exitDy=0;" edge="1" parent="1" source="4FVMw5Oiit9OQuc1B4m7-26" target="4FVMw5Oiit9OQuc1B4m7-89">
          <mxGeometry relative="1" as="geometry" />
        </mxCell>
        <mxCell id="a7nO67XUlajImu4DzMsQ-12" style="edgeStyle=orthogonalEdgeStyle;rounded=0;orthogonalLoop=1;jettySize=auto;html=1;exitX=1;exitY=0.5;exitDx=0;exitDy=0;entryX=0;entryY=0.5;entryDx=0;entryDy=0;" edge="1" parent="1" source="4FVMw5Oiit9OQuc1B4m7-89" target="4FVMw5Oiit9OQuc1B4m7-93">
          <mxGeometry relative="1" as="geometry" />
        </mxCell>
        <mxCell id="a7nO67XUlajImu4DzMsQ-15" style="edgeStyle=orthogonalEdgeStyle;rounded=0;orthogonalLoop=1;jettySize=auto;html=1;exitX=1;exitY=0.5;exitDx=0;exitDy=0;entryX=0;entryY=0.489;entryDx=0;entryDy=0;entryPerimeter=0;" edge="1" parent="1" source="4FVMw5Oiit9OQuc1B4m7-43" target="4FVMw5Oiit9OQuc1B4m7-77">
          <mxGeometry relative="1" as="geometry" />
        </mxCell>
        <mxCell id="a7nO67XUlajImu4DzMsQ-17" style="edgeStyle=orthogonalEdgeStyle;rounded=0;orthogonalLoop=1;jettySize=auto;html=1;entryX=0.55;entryY=-0.005;entryDx=0;entryDy=0;entryPerimeter=0;" edge="1" parent="1" source="4FVMw5Oiit9OQuc1B4m7-77" target="4FVMw5Oiit9OQuc1B4m7-80">
          <mxGeometry relative="1" as="geometry" />
        </mxCell>
        <mxCell id="a7nO67XUlajImu4DzMsQ-19" style="edgeStyle=orthogonalEdgeStyle;rounded=0;orthogonalLoop=1;jettySize=auto;html=1;exitX=0;exitY=0.5;exitDx=0;exitDy=0;entryX=1;entryY=0.5;entryDx=0;entryDy=0;" edge="1" parent="1" source="4FVMw5Oiit9OQuc1B4m7-97" target="4FVMw5Oiit9OQuc1B4m7-32">
          <mxGeometry relative="1" as="geometry" />
        </mxCell>
        <mxCell id="a7nO67XUlajImu4DzMsQ-21" style="edgeStyle=orthogonalEdgeStyle;rounded=0;orthogonalLoop=1;jettySize=auto;html=1;exitX=1;exitY=0.5;exitDx=0;exitDy=0;" edge="1" parent="1" source="4FVMw5Oiit9OQuc1B4m7-72">
          <mxGeometry relative="1" as="geometry">
            <mxPoint x="550" y="650" as="targetPoint" />
          </mxGeometry>
        </mxCell>
        <mxCell id="a7nO67XUlajImu4DzMsQ-27" style="edgeStyle=orthogonalEdgeStyle;rounded=0;orthogonalLoop=1;jettySize=auto;html=1;exitX=0;exitY=0.5;exitDx=0;exitDy=0;entryX=1;entryY=0.5;entryDx=0;entryDy=0;" edge="1" parent="1" source="4FVMw5Oiit9OQuc1B4m7-22" target="4FVMw5Oiit9OQuc1B4m7-73">
          <mxGeometry relative="1" as="geometry" />
        </mxCell>
      </root>
    </mxGraphModel>
  </diagram>
</mxfile>
